<svg width="339" height="81" viewBox="0 0 339 81" fill="none" xmlns="http://www.w3.org/2000/svg">
<path d="M320.2 75.8C322.167 75.8 324.019 75.4235 325.755 74.6705C327.492 73.9176 329.023 72.8776 330.35 71.5505C331.677 70.2235 332.717 68.6918 333.47 66.9553C334.223 65.2188 334.6 63.3671 334.6 61.4C334.6 59.4329 334.223 57.5812 333.47 55.8447C332.717 54.1082 331.677 52.5765 330.35 51.2494C329.023 49.9223 327.489 48.8824 325.748 48.1294C324.007 47.3765 322.153 47 320.186 47C318.219 47 316.367 47.3765 314.63 48.1294C312.894 48.8824 311.365 49.9223 310.042 51.2494C308.72 52.5765 307.682 54.1082 306.929 55.8447C306.176 57.5812 305.8 59.4329 305.8 61.4C305.8 63.3671 306.176 65.2188 306.929 66.9553C307.682 68.6918 308.722 70.2235 310.049 71.5505C311.376 72.8776 312.908 73.9176 314.644 74.6705C316.381 75.4235 318.233 75.8 320.2 75.8Z" fill="#0049C9"/>
<path d="M319.937 68.9366C319.621 68.9366 319.36 68.8365 319.155 68.6364C318.95 68.4362 318.848 68.1732 318.848 67.8474V60.4838L318.96 57.4257L317.521 59.1572L315.816 60.8748C315.602 61.0889 315.346 61.196 315.048 61.196C314.75 61.196 314.501 61.0959 314.3 60.8958C314.1 60.6956 314 60.4466 314 60.1487C314 59.8415 314.098 59.5901 314.293 59.3946L319.099 54.6189C319.369 54.3396 319.649 54.2 319.937 54.2C320.226 54.2 320.506 54.3396 320.776 54.6189L325.582 59.3946C325.777 59.5994 325.875 59.8508 325.875 60.1487C325.875 60.4466 325.773 60.6956 325.568 60.8958C325.363 61.0959 325.111 61.196 324.813 61.196C324.497 61.196 324.24 61.0889 324.045 60.8748L322.354 59.1572L320.901 57.4117L321.013 60.4838V67.8474C321.013 68.1732 320.913 68.4362 320.713 68.6364C320.513 68.8365 320.254 68.9366 319.937 68.9366Z" fill="white"/>
</svg>
