<svg width="339" height="81" viewBox="0 0 339 81" fill="none" xmlns="http://www.w3.org/2000/svg">
<path d="M320.2 76.3C322.167 76.3 324.019 75.9235 325.755 75.1705C327.492 74.4176 329.023 73.3776 330.35 72.0505C331.677 70.7235 332.717 69.1918 333.47 67.4553C334.223 65.7188 334.6 63.8671 334.6 61.9C334.6 59.9329 334.223 58.0812 333.47 56.3447C332.717 54.6082 331.677 53.0765 330.35 51.7494C329.023 50.4223 327.489 49.3824 325.748 48.6294C324.007 47.8765 322.153 47.5 320.186 47.5C318.219 47.5 316.367 47.8765 314.63 48.6294C312.894 49.3824 311.365 50.4223 310.042 51.7494C308.72 53.0765 307.682 54.6082 306.929 56.3447C306.176 58.0812 305.8 59.9329 305.8 61.9C305.8 63.8671 306.176 65.7188 306.929 67.4553C307.682 69.1918 308.722 70.7235 310.049 72.0505C311.376 73.3776 312.908 74.4176 314.644 75.1705C316.381 75.9235 318.233 76.3 320.2 76.3Z" fill="#0C7BFB"/>
<path d="M319.937 69.4366C319.621 69.4366 319.36 69.3365 319.155 69.1364C318.95 68.9362 318.848 68.6732 318.848 68.3474V60.9838L318.96 57.9257L317.521 59.6572L315.816 61.3748C315.602 61.5889 315.346 61.696 315.048 61.696C314.75 61.696 314.501 61.5959 314.3 61.3958C314.1 61.1956 314 60.9466 314 60.6487C314 60.3415 314.098 60.0901 314.293 59.8946L319.099 55.1189C319.369 54.8396 319.649 54.7 319.937 54.7C320.226 54.7 320.506 54.8396 320.776 55.1189L325.582 59.8946C325.777 60.0994 325.875 60.3508 325.875 60.6487C325.875 60.9466 325.773 61.1956 325.568 61.3958C325.363 61.5959 325.111 61.696 324.813 61.696C324.497 61.696 324.24 61.5889 324.045 61.3748L322.354 59.6572L320.901 57.9117L321.013 60.9838V68.3474C321.013 68.6732 320.913 68.9362 320.713 69.1364C320.513 69.3365 320.254 69.4366 319.937 69.4366Z" fill="white"/>
</svg>
