<svg width="54" height="21" viewBox="0 0 54 21" fill="none" xmlns="http://www.w3.org/2000/svg">
<rect width="54" height="21" rx="10.5" fill="#007AFF"/>
<path d="M27.5035 18C31.6163 18 35 14.6234 35 10.5035C35 6.38367 31.6163 3 27.4965 3C23.3766 3 20 6.38367 20 10.5035C20 14.6234 23.3837 18 27.5035 18ZM25.2454 13.9651C24.7216 14.4889 23.9571 14.0713 24.2544 13.3351L26.8098 6.83672C27.0859 6.15007 27.8929 6.14299 28.1619 6.82964L30.7244 13.3351C31.0217 14.0854 30.243 14.4748 29.7263 13.9651L27.6734 11.9122C27.5602 11.799 27.4186 11.799 27.2983 11.9122L25.2454 13.9651Z" fill="white"/>
</svg>
