<svg width="54" height="21" viewBox="0 0 54 21" fill="none" xmlns="http://www.w3.org/2000/svg">
<rect width="54" height="21" rx="10.5" fill="#FF3B30"/>
<path d="M27.4964 18C31.6071 18 35 14.6054 35 10.5C35 6.39458 31.5998 3 27.4891 3C23.3857 3 20 6.39458 20 10.5C20 14.6054 23.3929 18 27.4964 18ZM27.4964 16.5058C24.1687 16.5058 21.508 13.8293 21.508 10.5C21.508 7.1707 24.1687 4.50145 27.4891 4.50145C30.8168 4.50145 33.492 7.1707 33.4993 10.5C33.5065 13.8293 30.8241 16.5058 27.4964 16.5058ZM27.5036 13.3433C29.0768 13.3433 30.3456 12.0667 30.3456 10.4927C30.3456 8.91876 29.0768 7.64942 27.5036 7.64942C25.9232 7.64942 24.6544 8.91876 24.6544 10.4927C24.6544 12.0667 25.9232 13.3433 27.5036 13.3433Z" fill="white"/>
</svg>
