<svg width="54" height="21" viewBox="0 0 54 21" fill="none" xmlns="http://www.w3.org/2000/svg">
<rect width="54" height="21" rx="10.5" fill="#34C759"/>
<path d="M24.1522 13.8325C26.5041 16.1997 29.3463 18 31.6599 18C32.6941 18 33.6057 17.6476 34.3412 16.8355C34.7625 16.3606 35 15.832 35 15.2957C35 14.8361 34.8238 14.3994 34.3871 14.0853L32.0199 12.3999C31.6292 12.1241 31.3075 12.0015 31.0163 12.0015C30.641 12.0015 30.3115 12.216 29.9515 12.5761L29.3769 13.143C29.2926 13.2349 29.1777 13.2656 29.0781 13.2656C28.9556 13.2656 28.8253 13.2196 28.7411 13.1736C28.2508 12.8979 27.3927 12.1624 26.6113 11.3733C25.8299 10.5919 25.0945 9.74157 24.8187 9.24362C24.7651 9.15935 24.7191 9.03677 24.7191 8.9142C24.7191 8.81461 24.7574 8.70735 24.8417 8.61542L25.4162 8.04086C25.7763 7.67314 25.9908 7.34372 25.9908 6.96833C25.9908 6.67722 25.8606 6.35546 25.5848 5.97242L23.907 3.61287C23.6006 3.18386 23.1486 3 22.6736 3C22.1374 3 21.6164 3.22217 21.1491 3.65884C20.3524 4.39428 20 5.31359 20 6.34014C20 8.66139 21.7926 11.4806 24.1522 13.8325Z" fill="white"/>
</svg>
