<svg width="24" height="24" viewBox="0 0 24 24" fill="none" xmlns="http://www.w3.org/2000/svg">
<g clip-path="url(#clip0_100_1108)">
<path opacity="0" d="M22 4.00183H3V20.173H22V4.00183Z" fill="black"/>
<path d="M13.3901 20.1642C13.6016 20.1642 13.8028 20.1187 13.9937 20.0276C14.1847 19.9365 14.3859 19.7911 14.5974 19.5913L21.5505 13.0259C21.7209 12.8673 21.8384 12.7058 21.9031 12.5412C21.9677 12.3767 22 12.224 22 12.083C22 11.9361 21.9677 11.7804 21.9031 11.6159C21.8384 11.4514 21.7209 11.2899 21.5505 11.1312L14.5974 4.62753C14.3624 4.40427 14.1582 4.24418 13.985 4.14724C13.8116 4.0503 13.6192 4.00183 13.4077 4.00183C13.0963 4.00183 12.8422 4.10758 12.6454 4.31908C12.4486 4.53059 12.3502 4.78322 12.3502 5.07697V8.40813H12.0946C10.5142 8.40813 9.14973 8.65195 8.00115 9.13958C6.85258 9.62722 5.90963 10.3322 5.17231 11.2546C4.43499 12.177 3.8886 13.2889 3.53316 14.5902C3.17772 15.8915 3 17.3559 3 18.9833C3 19.3651 3.09253 19.6574 3.2776 19.8601C3.46266 20.0628 3.6727 20.1642 3.9077 20.1642C4.0957 20.1642 4.28517 20.126 4.47611 20.0496C4.66705 19.9732 4.83889 19.794 4.99165 19.512C5.50278 18.5485 6.09323 17.795 6.76298 17.2516C7.43274 16.7081 8.20531 16.3248 9.0807 16.1015C9.95609 15.8783 10.9607 15.7667 12.0946 15.7667H12.3502V19.1331C12.3502 19.4327 12.4486 19.6795 12.6454 19.8734C12.8422 20.0672 13.0904 20.1642 13.3901 20.1642Z" fill="black"/>
</g>
<defs>
<clipPath id="clip0_100_1108">
<rect width="19" height="16.1711" fill="white" transform="translate(3 4)"/>
</clipPath>
</defs>
</svg>
