<svg width="24" height="24" viewBox="0 0 24 24" fill="none" xmlns="http://www.w3.org/2000/svg">
<path d="M17.75 21.3333C16.9861 21.3333 16.3368 21.066 15.8021 20.5312C15.2674 19.9965 15 19.3472 15 18.5833C15 18.4764 15.0076 18.3655 15.0229 18.2506C15.0382 18.1363 15.0611 18.0333 15.0917 17.9417L8.62917 14.1833C8.36944 14.4125 8.07917 14.5919 7.75833 14.7214C7.4375 14.8516 7.10139 14.9167 6.75 14.9167C5.98611 14.9167 5.33681 14.6493 4.80208 14.1146C4.26736 13.5799 4 12.9306 4 12.1667C4 11.4028 4.26736 10.7535 4.80208 10.2188C5.33681 9.68403 5.98611 9.41667 6.75 9.41667C7.10139 9.41667 7.4375 9.48144 7.75833 9.611C8.07917 9.74117 8.36944 9.92083 8.62917 10.15L15.0917 6.39167C15.0611 6.3 15.0382 6.19703 15.0229 6.08275C15.0076 5.96786 15 5.85694 15 5.75C15 4.98611 15.2674 4.33681 15.8021 3.80208C16.3368 3.26736 16.9861 3 17.75 3C18.5139 3 19.1632 3.26736 19.6979 3.80208C20.2326 4.33681 20.5 4.98611 20.5 5.75C20.5 6.51389 20.2326 7.16319 19.6979 7.69792C19.1632 8.23264 18.5139 8.5 17.75 8.5C17.3986 8.5 17.0625 8.43492 16.7417 8.30475C16.4208 8.17519 16.1306 7.99583 15.8708 7.76667L9.40833 11.525C9.43889 11.6167 9.46181 11.7196 9.47708 11.8339C9.49236 11.9488 9.5 12.0597 9.5 12.1667C9.5 12.2736 9.49236 12.3842 9.47708 12.4985C9.46181 12.6134 9.43889 12.7167 9.40833 12.8083L15.8708 16.5667C16.1306 16.3375 16.4208 16.1578 16.7417 16.0277C17.0625 15.8981 17.3986 15.8333 17.75 15.8333C18.5139 15.8333 19.1632 16.1007 19.6979 16.6354C20.2326 17.1701 20.5 17.8194 20.5 18.5833C20.5 19.3472 20.2326 19.9965 19.6979 20.5312C19.1632 21.066 18.5139 21.3333 17.75 21.3333Z" fill="black"/>
</svg>
