<svg width="24" height="24" viewBox="0 0 24 24" fill="none" xmlns="http://www.w3.org/2000/svg">
<path fill-rule="evenodd" clip-rule="evenodd" d="M13.409 12.4123L15.0179 14.0211L16.8692 12.2309V12.2377L18.1899 10.9606V10.954L18.6197 10.5383L23.2006 6.10861L21.6323 4.48539L17.0514 8.90105L13.409 12.4123ZM14.5345 14.5282L12.9311 12.9248L12.0716 15.3805L14.5064 14.5551L14.5345 14.5282ZM14.4894 6.85848V8.41299H7.70084V6.85848H14.4894ZM15.8101 5.53097H6.38016V9.74023H14.3122L15.8103 8.29834L15.8101 5.53097ZM16.4223 4.32737C16.7318 4.35483 16.8693 4.5888 16.8693 4.81567V7.27313C16.9716 7.17496 17.0749 7.07639 17.1788 6.97876L18.1898 5.99826V4.65762C18.1898 4.63699 18.1692 4.54069 18.1624 4.48565C18.1073 4.18297 17.9836 3.86662 17.7222 3.58459C17.4539 3.28191 17.1306 3.13058 16.8555 3.05505C16.718 3.02063 16.5941 3.0138 16.4565 3H5.72648C5.66461 3.00683 5.59577 3.00683 5.54769 3.01379C5.45822 3.02759 5.36889 3.04821 5.28626 3.06884C5.22438 3.08947 5.15555 3.11692 5.10747 3.13072C5.04559 3.15134 4.98372 3.19259 4.92171 3.22018C4.44705 3.45402 4.11692 3.99737 4.04125 4.38254C4.02745 4.472 4.01379 4.5683 4 4.65762V19.3079C4 19.3217 4.02062 19.4937 4.04125 19.583C4.06187 19.6725 4.09629 19.755 4.12375 19.8444C4.14437 19.8857 4.17183 19.9407 4.18562 19.982C4.40567 20.4772 5.01102 20.8624 5.42365 20.9243C5.51994 20.9381 5.61624 20.9587 5.71253 20.9655H16.47C16.4906 20.9655 16.6488 20.9449 16.7314 20.9311C16.8139 20.9173 16.9378 20.883 17.0272 20.8486C17.2542 20.7591 17.4949 20.6286 17.7219 20.3809C17.9489 20.1333 18.0726 19.8514 18.1345 19.6106C18.1551 19.5074 18.1757 19.4042 18.1895 19.301V12.7696L16.8688 14.0525V19.1429C16.8757 19.418 16.635 19.6382 16.4356 19.6382H5.747C5.44433 19.5969 5.32056 19.3631 5.32056 19.1499L5.32096 4.82256C5.32779 4.78815 5.32779 4.74007 5.32779 4.71248C5.35525 4.49243 5.59605 4.31349 5.76106 4.32731L16.4223 4.32737ZM15.7996 17.1413H6.39027V18.462H15.7996V17.1413ZM11.095 14.3626H6.39027V15.6832H11.095V14.3626ZM11.095 11.3362H6.39027V12.6568H11.095V11.3362Z" fill="black"/>
</svg>
