<svg width="24" height="24" viewBox="0 0 24 24" fill="none" xmlns="http://www.w3.org/2000/svg">
<path d="M20.1251 3.15892C20.1251 3.15892 22.1601 2.37978 21.9899 4.27183C21.9338 5.05097 21.4252 7.77822 21.0292 10.7276L19.6726 19.4653C19.6726 19.4653 19.5594 20.7454 18.5417 20.968C17.5245 21.1902 15.9981 20.1889 15.7153 19.9662C15.489 19.7991 11.4756 17.2945 10.0624 16.0705C9.6664 15.7362 9.21383 15.0687 10.119 14.2896L16.0542 8.72398C16.7325 8.05644 17.4108 6.49817 14.5844 8.39021L6.66972 13.677C6.66972 13.677 5.76512 14.234 4.06957 13.7331L0.394577 12.6197C0.394577 12.6197 -0.96207 11.785 1.35575 10.9503C7.00915 8.33467 13.9626 5.66348 20.1241 3.15892H20.1251Z" fill="black"/>
</svg>
