<svg width="15" height="17" viewBox="0 0 15 17" fill="none" xmlns="http://www.w3.org/2000/svg">
<path d="M12.5 16.6667C11.8056 16.6667 11.2153 16.4236 10.7292 15.9375C10.2431 15.4514 10 14.8611 10 14.1667C10 14.0694 10.0069 13.9686 10.0208 13.8642C10.0347 13.7603 10.0556 13.6667 10.0833 13.5833L4.20833 10.1667C3.97222 10.375 3.70833 10.5381 3.41667 10.6558C3.125 10.7742 2.81944 10.8333 2.5 10.8333C1.80556 10.8333 1.21528 10.5903 0.729167 10.1042C0.243056 9.61806 0 9.02778 0 8.33333C0 7.63889 0.243056 7.04861 0.729167 6.5625C1.21528 6.07639 1.80556 5.83333 2.5 5.83333C2.81944 5.83333 3.125 5.89222 3.41667 6.01C3.70833 6.12833 3.97222 6.29167 4.20833 6.5L10.0833 3.08333C10.0556 3 10.0347 2.90639 10.0208 2.8025C10.0069 2.69806 10 2.59722 10 2.5C10 1.80556 10.2431 1.21528 10.7292 0.729167C11.2153 0.243056 11.8056 0 12.5 0C13.1944 0 13.7847 0.243056 14.2708 0.729167C14.7569 1.21528 15 1.80556 15 2.5C15 3.19444 14.7569 3.78472 14.2708 4.27083C13.7847 4.75694 13.1944 5 12.5 5C12.1806 5 11.875 4.94083 11.5833 4.8225C11.2917 4.70472 11.0278 4.54167 10.7917 4.33333L4.91667 7.75C4.94444 7.83333 4.96528 7.92694 4.97917 8.03083C4.99306 8.13528 5 8.23611 5 8.33333C5 8.43056 4.99306 8.53111 4.97917 8.635C4.96528 8.73945 4.94444 8.83333 4.91667 8.91667L10.7917 12.3333C11.0278 12.125 11.2917 11.9617 11.5833 11.8433C11.875 11.7256 12.1806 11.6667 12.5 11.6667C13.1944 11.6667 13.7847 11.9097 14.2708 12.3958C14.7569 12.8819 15 13.4722 15 14.1667C15 14.8611 14.7569 15.4514 14.2708 15.9375C13.7847 16.4236 13.1944 16.6667 12.5 16.6667Z" fill="black"/>
</svg>
