<svg width="19" height="19" viewBox="0 0 19 19" fill="none" xmlns="http://www.w3.org/2000/svg">
<path d="M17.8588 2.97316H15.8568V0.971232C15.8568 0.436063 15.4208 0 14.8856 0H14.8559C14.3108 0 13.8747 0.436063 13.8747 0.971232V2.97316H11.8827C11.3476 2.97316 10.9115 3.40922 10.9016 3.94439V3.97412C10.9016 4.5192 11.3376 4.95526 11.8827 4.95526H13.8747V6.94728C13.8747 7.48245 14.3108 7.92842 14.8559 7.91851H14.8856C15.4208 7.91851 15.8568 7.48245 15.8568 6.94728V4.95526H17.8588C18.3939 4.95526 18.83 4.5192 18.83 3.98403V3.94439C18.83 3.40922 18.3939 2.97316 17.8588 2.97316ZM12.8837 6.94728V5.94632H11.8827C11.3575 5.94632 10.8619 5.73819 10.4853 5.37151C10.1186 4.99491 9.91053 4.49938 9.91053 3.94439C9.91053 3.58761 10.0096 3.26056 10.1781 2.97316H1.98211C0.891947 2.97316 0 3.86511 0 4.95526V16.8479C0 17.9381 0.891947 18.83 1.98211 18.83H13.8747C14.9649 18.83 15.8568 17.9381 15.8568 16.8479V8.64198C15.5595 8.81046 15.2226 8.91947 14.846 8.91947C14.3254 8.91427 13.8278 8.70451 13.4607 8.33549C13.0935 7.96648 12.8863 7.46783 12.8837 6.94728ZM12.844 16.8479H2.97316C2.88113 16.8479 2.79093 16.8223 2.71264 16.7739C2.63436 16.7255 2.5711 16.6563 2.52995 16.574C2.48879 16.4917 2.47137 16.3995 2.47963 16.3079C2.4879 16.2162 2.52152 16.1287 2.57674 16.0551L4.53902 13.4486C4.74714 13.1711 5.15347 13.1909 5.35168 13.4684L6.93737 15.8568L9.52402 12.408C9.72223 12.1503 10.1087 12.1404 10.3069 12.3981L13.2306 16.0451C13.4882 16.3722 13.2603 16.8479 12.844 16.8479Z" fill="#545C69"/>
</svg>
