<svg width="18" height="15" viewBox="0 0 18 15" fill="none" xmlns="http://www.w3.org/2000/svg">
<path d="M16.0089 0.128757C16.0089 0.128757 17.6276 -0.502493 17.4922 1.03042C17.4476 1.66167 17.043 3.87126 16.728 6.26084L15.6489 13.34C15.6489 13.34 15.5589 14.3771 14.7493 14.5575C13.9401 14.7375 12.726 13.9263 12.501 13.7458C12.321 13.6104 9.12846 11.5813 8.00429 10.5896C7.68929 10.3188 7.32929 9.77792 8.04929 9.14667L12.7705 4.63751C13.3101 4.09667 13.8497 2.83417 11.6014 4.36709L5.30554 8.65042C5.30554 8.65042 4.58596 9.10167 3.23721 8.69584L0.313873 7.79376C0.313873 7.79376 -0.765294 7.11751 1.07846 6.44126C5.57554 4.32209 11.1068 2.15792 16.008 0.128757H16.0089Z" fill="white"/>
</svg>
