<svg width="17" height="14" viewBox="0 0 17 14" fill="none" xmlns="http://www.w3.org/2000/svg">
<path d="M15.3719 0.753404C15.3719 0.753404 16.8435 0.179541 16.7204 1.5731C16.6798 2.14696 16.312 4.15568 16.0257 6.32803L15.0446 12.7636C15.0446 12.7636 14.9628 13.7064 14.2268 13.8704C13.4912 14.0341 12.3874 13.2966 12.1829 13.1326C12.0192 13.0095 9.11696 11.1648 8.09499 10.2633C7.80862 10.017 7.48135 9.52537 8.1359 8.95151L12.4279 4.85227C12.9185 4.3606 13.409 3.21287 11.3651 4.60644L5.64158 8.50037C5.64158 8.50037 4.98741 8.9106 3.76127 8.54166L1.1037 7.72159C1.1037 7.72159 0.122637 7.10681 1.79877 6.49204C5.88703 4.56553 10.9154 2.5981 15.3711 0.753404H15.3719Z" fill="white"/>
</svg>
